HIERARCHY
ROOT Hips
{
	OFFSET -0.001795 -0.223333 0.028219
	CHANNELS 6 Xposition Yposition Zposition Zrotation Yrotation Xrotation 
	JOINT LeftUpLeg
	{
		OFFSET 0.069520 -0.091406 -0.006815
		CHANNELS 3 Zrotation Yrotation Xrotation
		JOINT LeftLeg
		{
			OFFSET 0.034277 -0.375199 -0.004496
			CHANNELS 3 Zrotation Yrotation Xrotation
			JOINT LeftFoot
			{
				OFFSET -0.013596 -0.397961 -0.043693
				CHANNELS 3 Zrotation Yrotation Xrotation
				JOINT LeftToe
				{
					OFFSET 0.026358 -0.055791 0.119288
					CHANNELS 3 Zrotation Yrotation Xrotation
					End Site
					{
						OFFSET 0.000000 0.000000 0.000000
					}
				}
			}
		}
	}
	JOINT RightUpLeg
	{
		OFFSET -0.067670 -0.090522 -0.004320
		CHANNELS 3 Zrotation Yrotation Xrotation
		JOINT RightLeg
		{
			OFFSET -0.038290 -0.382569 -0.008850
			CHANNELS 3 Zrotation Yrotation Xrotation
			JOINT RightFoot
			{
				OFFSET 0.015774 -0.398415 -0.042312
				CHANNELS 3 Zrotation Yrotation Xrotation
				JOINT RightToe
				{
					OFFSET -0.025372 -0.048144 0.123348
					CHANNELS 3 Zrotation Yrotation Xrotation
					End Site
					{
						OFFSET 0.000000 0.000000 0.000000
					}
				}
			}
		}
	}
	JOINT Spine
	{
		OFFSET -0.002533 0.108963 -0.026696
		CHANNELS 3 Zrotation Yrotation Xrotation
		JOINT Spine1
		{
			OFFSET 0.005487 0.135180 0.001092
			CHANNELS 3 Zrotation Yrotation Xrotation
			JOINT Spine2
			{
				OFFSET 0.001457 0.052922 0.025425
				CHANNELS 3 Zrotation Yrotation Xrotation
				JOINT Neck
				{
					OFFSET -0.002778 0.213870 -0.042857
					CHANNELS 3 Zrotation Yrotation Xrotation
					JOINT Head
					{
						OFFSET 0.005152 0.064970 0.051349
						CHANNELS 3 Zrotation Yrotation Xrotation
						End Site
						{
							OFFSET 0.000000 0.000000 0.000000
						}
					}
				}
				JOINT LeftShoulder
				{
					OFFSET 0.078845 0.121749 -0.034090
					CHANNELS 3 Zrotation Yrotation Xrotation
					JOINT LeftArm
					{
						OFFSET 0.090977 0.030469 -0.008868
						CHANNELS 3 Zrotation Yrotation Xrotation
						JOINT LeftForeArm
						{
							OFFSET 0.259612 -0.012772 -0.027456
							CHANNELS 3 Zrotation Yrotation Xrotation
							JOINT LeftHand
							{
								OFFSET 0.249234 0.008986 -0.001171
								CHANNELS 3 Zrotation Yrotation Xrotation
								End Site
								{
									OFFSET 0.000000 0.000000 0.000000
								}
							}
						}
					}
				}
				JOINT RightShoulder
				{
					OFFSET -0.081759 0.118833 -0.038615
					CHANNELS 3 Zrotation Yrotation Xrotation
					JOINT RightArm
					{
						OFFSET -0.096012 0.032551 -0.009143
						CHANNELS 3 Zrotation Yrotation Xrotation
						JOINT RightForeArm
						{
							OFFSET -0.253742 -0.013329 -0.021401
							CHANNELS 3 Zrotation Yrotation Xrotation
							JOINT RightHand
							{
								OFFSET -0.255298 0.007772 -0.005559
								CHANNELS 3 Zrotation Yrotation Xrotation
								End Site
								{
									OFFSET 0.000000 0.000000 0.000000
								}
							}
						}
					}
				}
			}
		}
	}
}
MOTION
Frames: 6
Frame Time: 0.050000
0.000000 0.906734 0.000000 0.490715 -15.454323 -3.572947 -2.094534 -1.856820 -22.545035 -1.729587 0.260790 7.370224 4.232797 10.333731 20.358354 0.000000 0.000000 0.000000 2.734257 -1.441795 16.646551 -0.301707 0.624516 10.004697 -2.753363 -3.494026 -4.729729 0.000000 0.000000 0.000000 -3.287821 -0.003341 7.755214 -1.591978 0.551128 -5.963936 3.856981 9.974936 15.374418 2.996162 -0.323395 -19.760890 0.000000 0.000000 0.000000 -16.963042 -0.043039 -1.404575 -57.941664 -0.979431 -7.575272 -39.752512 -61.605165 28.090410 0.000000 0.000000 0.000000 8.558015 11.831859 4.527703 59.153663 21.557668 4.125676 32.855244 61.663139 23.210006 0.000000 0.000000 0.000000 
-0.004683 0.903735 0.047171 0.068568 -15.377482 -2.851992 -1.919724 -1.761699 -21.289493 -2.561117 0.486485 9.349443 4.340777 10.205880 16.412089 0.000000 0.000000 0.000000 3.195646 -1.615453 17.957599 -1.163235 0.997768 12.613810 -2.348353 -3.710591 -2.887897 0.000000 0.000000 0.000000 -3.486233 -0.002613 4.864374 -1.462014 0.502584 -5.858571 4.550526 9.335424 17.574159 1.145051 0.855365 -22.144564 0.000000 0.000000 0.000000 -18.464120 1.259327 -2.005192 -57.216693 -1.016875 -7.675720 -42.960649 -60.771841 30.197120 0.000000 0.000000 0.000000 6.534171 11.856859 4.381903 60.993500 20.583070 3.579678 41.918366 61.898010 29.225702 0.000000 0.000000 0.000000 
-0.008225 0.907531 0.096645 1.019198 -13.933968 -3.386676 -4.719404 -2.282909 -20.016328 -1.226491 0.230881 13.623185 4.262907 9.943034 12.004945 0.000000 0.000000 0.000000 0.287290 -1.079351 16.899669 0.767221 1.164240 19.613098 0.979380 -1.029916 5.021942 0.000000 0.000000 0.000000 -3.823389 0.004188 4.231544 -1.760791 0.640976 -6.394740 3.488357 9.095399 18.104488 1.723944 0.471904 -20.364838 0.000000 0.000000 0.000000 -18.067439 0.968569 -1.942427 -55.510431 -2.476078 -6.865269 -37.680653 -59.285487 25.757766 0.000000 0.000000 0.000000 8.814232 10.076426 3.834277 59.126868 19.952862 2.961685 42.218087 59.151299 28.069936 0.000000 0.000000 0.000000 
-0.010688 0.913882 0.145659 1.679144 -14.285582 -4.021356 -6.424857 -2.287973 -16.965938 -0.738110 0.155273 15.078136 4.746619 10.560534 9.314305 0.000000 0.000000 0.000000 -2.108054 -0.498814 12.558324 3.023113 1.731228 31.948718 2.493184 -2.119492 12.575014 0.000000 0.000000 0.000000 -4.707544 0.031133 2.786066 -1.541360 0.601352 -3.864552 2.885278 8.635556 17.328408 1.658947 0.263523 -17.990112 0.000000 0.000000 0.000000 -18.470854 1.360406 -2.098494 -54.871367 -3.042627 -6.482548 -39.693661 -60.616900 27.846809 0.000000 0.000000 0.000000 7.035770 11.187201 4.147784 59.533410 18.136957 2.128768 44.195434 60.294950 29.748754 0.000000 0.000000 0.000000 
-0.013393 0.919646 0.190274 1.887725 -13.144719 -4.503294 -7.658808 -2.082116 -13.555941 -0.410905 0.035167 15.304903 4.378347 9.897329 7.217665 0.000000 0.000000 0.000000 -4.279213 -0.030063 5.298824 6.348108 1.650604 46.177303 3.789904 -3.729278 22.310299 0.000000 0.000000 0.000000 -4.990173 0.038606 3.710164 -1.337596 0.512333 -4.389278 2.249306 6.327463 17.337080 1.745421 -0.034113 -17.952116 0.000000 0.000000 0.000000 -18.522171 0.319353 -1.134496 -53.658231 -4.376753 -5.845335 -39.173057 -61.656306 28.545895 0.000000 0.000000 0.000000 7.895436 10.116070 3.538335 59.034679 16.000434 0.839984 45.282066 59.455016 29.373231 0.000000 0.000000 0.000000 
-0.017179 0.924520 0.229351 1.346683 -12.222510 -5.208368 -7.707861 -1.554594 -9.508863 -0.213512 -0.062895 14.519910 3.972991 9.093418 5.420486 0.000000 0.000000 0.000000 -4.876018 0.301071 -2.100767 8.755508 0.940344 55.651338 1.090141 -8.632492 26.692799 0.000000 0.000000 0.000000 -4.190722 -0.005430 4.774022 -0.951482 0.369621 -3.383184 1.078189 3.732004 16.776841 1.077966 0.102633 -17.448920 0.000000 0.000000 0.000000 -18.630577 -0.750248 -0.118237 -52.123294 -6.309361 -4.951111 -37.027089 -63.686479 28.698692 0.000000 0.000000 0.000000 9.017063 10.376779 3.401666 57.003868 13.762764 -0.383282 44.226565 59.608960 28.042386 0.000000 0.000000 0.000000 
